<?xml version="1.0" standalone="no"?>
<svg xmlns="http://www.w3.org/2000/svg" xmlns:xlink="http://www.w3.org/1999/xlink" width="369pt" height="539pt" viewBox="0.00 0.00 369.02 539">
<g id="graph0" class="graph" transform="translate(44.29556295434372,517.8977698026351) scale(0.955282936382438)" data-name="G">

<polygon fill="#2e3e56" stroke="none" points="-4,4 -4,-535 365.02,-535 365.02,4 -4,4"/>
<g id="clust1" class="cluster" data-name="clusterNFT">

<path fill="#445773" stroke="#445773" d="M20,-147C20,-147 341.02,-147 341.02,-147 347.02,-147 353.02,-153 353.02,-159 353.02,-159 353.02,-374 353.02,-374 353.02,-380 347.02,-386 341.02,-386 341.02,-386 20,-386 20,-386 14,-386 8,-380 8,-374 8,-374 8,-159 8,-159 8,-153 14,-147 20,-147" style=""/>
<text text-anchor="middle" x="180.51" y="-369.4" font-family="Times,serif" font-size="14.00" fill="#f0f0f0" style="">NFT</text>
</g>
<g id="clust2" class="cluster" data-name="clusterCounters.Counter">

<path fill="#3b4b63" stroke="#e8726d" stroke-dasharray="5,2" d="M231.48,-8C231.48,-8 322.77,-8 322.77,-8 328.77,-8 334.77,-14 334.77,-20 334.77,-20 334.77,-127 334.77,-127 334.77,-133 328.77,-139 322.77,-139 322.77,-139 231.48,-139 231.48,-139 225.48,-139 219.48,-133 219.48,-127 219.48,-127 219.48,-20 219.48,-20 219.48,-14 225.48,-8 231.48,-8" style=""/>
<text text-anchor="middle" x="277.13" y="-122.4" font-family="Times,serif" font-size="14.00" fill="#f0f0f0" style="">Counters.Counter</text>
</g>
<g id="clust3" class="cluster" data-name="cluster_01">

<polygon fill="#2e3e56" stroke="black" points="21.62,-394 21.62,-523 312.13,-523 312.13,-394 21.62,-394"/>
<text text-anchor="middle" x="166.87" y="-506.4" font-family="Times,serif" font-size="14.00">Legend</text>
</g>
<!-- Marketplace.itemListed -->
<g id="node1" class="node" pointer-events="visible" data-name="NFT.&lt;Constructor&gt;" data-comment="Marketplace.itemListed">

<ellipse fill="#ff9797" stroke="#ff9797" stroke-width="3" cx="94.62" cy="-335" rx="67.55" ry="18" style=""/>
<text text-anchor="middle" x="94.62" y="-330.8" font-family="Times,serif" font-size="14.00" style="">&lt;Constructor&gt;</text>
</g>
<!-- Marketplace.Marketplace__ItemAlreadyListed -->
<g id="node2" class="node" pointer-events="visible" data-name="NFT.mint" data-comment="Marketplace.Marketplace__ItemAlreadyListed">

<ellipse fill="#ff9797" stroke="#ff9797" stroke-width="3" cx="94.62" cy="-281" rx="28.99" ry="18" style=""/>
<text text-anchor="middle" x="94.62" y="-276.8" font-family="Times,serif" font-size="14.00" style="">mint</text>
</g>
<!-- Marketplace.itemListed&#45;&gt;Marketplace.Marketplace__ItemAlreadyListed -->
<g id="node5" class="node" pointer-events="visible" data-name="NFT._mint" data-comment="Marketplace.itemListed-&gt;Marketplace.Marketplace__ItemAlreadyListed">

<ellipse fill="#edad56" stroke="#edad56" stroke-width="3" cx="277.13" cy="-254" rx="33.64" ry="18" style=""/>
<text text-anchor="middle" x="277.13" y="-249.8" font-family="Times,serif" font-size="14.00" style="">_mint</text>
</g>
<!-- Marketplace.itemNotListed -->
<g id="edge3" class="edge" data-name="NFT.mint-&gt;NFT._mint" data-comment="Marketplace.itemNotListed">

<path fill="none" stroke="#1bc6a6" stroke-width="2" d="M124.22,-276.72C152.83,-272.44 197.27,-265.79 230.71,-260.79" style=""/>
<polygon fill="#1bc6a6" stroke="#1bc6a6" stroke-width="2" points="231.01,-264.29 240.39,-259.35 229.98,-257.36 231.01,-264.29" style=""/>
</g>
<!-- Marketplace.Marketplace__ItemNotListed -->
<g id="node6" class="node" pointer-events="visible" data-name="NFT._setTokenURI" data-comment="Marketplace.Marketplace__ItemNotListed">

<ellipse fill="#edad56" stroke="#edad56" stroke-width="3" cx="277.13" cy="-308" rx="67.79" ry="18" style=""/>
<text text-anchor="middle" x="277.13" y="-303.8" font-family="Times,serif" font-size="14.00" style="">_setTokenURI</text>
</g>
<!-- Marketplace.itemNotListed&#45;&gt;Marketplace.Marketplace__ItemNotListed -->
<g id="edge4" class="edge" data-name="NFT.mint-&gt;NFT._setTokenURI" data-comment="Marketplace.itemNotListed-&gt;Marketplace.Marketplace__ItemNotListed">

<path fill="none" stroke="#1bc6a6" stroke-width="2" d="M124.22,-285.28C145.51,-288.46 175.58,-292.96 203.34,-297.11" style=""/>
<polygon fill="#1bc6a6" stroke="#1bc6a6" stroke-width="2" points="202.5,-300.53 212.91,-298.54 203.54,-293.6 202.5,-300.53" style=""/>
</g>
<!-- Marketplace.isOwner -->
<g id="node7" class="node" pointer-events="visible" data-name="Counters.Counter.increment" data-comment="Marketplace.isOwner">

<ellipse fill="#edad56" stroke="#edad56" stroke-width="3" cx="277.13" cy="-88" rx="49.79" ry="18" style=""/>
<text text-anchor="middle" x="277.13" y="-83.8" font-family="Times,serif" font-size="14.00" style="">increment</text>
</g>
<!-- Marketplace.IERC721 -->
<g id="edge1" class="edge" data-name="NFT.mint-&gt;Counters.Counter.increment" data-comment="Marketplace.IERC721">

<path fill="none" stroke="white" stroke-width="2" d="M124.46,-277.37C140.75,-273.9 160.36,-267.15 173.23,-254 209.52,-216.94 180.03,-185.86 209.23,-143 217.25,-131.23 228.5,-120.64 239.48,-111.97" style=""/>
<polygon fill="white" stroke="white" stroke-width="2" points="241.46,-114.86 247.39,-106.07 237.28,-109.24 241.46,-114.86" style=""/>
</g>
<!-- Marketplace.isOwner&#45;&gt;Marketplace.IERC721 -->
<g id="node8" class="node" pointer-events="visible" data-name="Counters.Counter.current" data-comment="Marketplace.isOwner-&gt;Marketplace.IERC721">

<ellipse fill="#edad56" stroke="#edad56" stroke-width="3" cx="277.13" cy="-34" rx="38.26" ry="18" style=""/>
<text text-anchor="middle" x="277.13" y="-29.8" font-family="Times,serif" font-size="14.00" style="">current</text>
</g>
<!-- Marketplace.Marketplace__NotOwner -->
<g id="edge2" class="edge" data-name="NFT.mint-&gt;Counters.Counter.current" data-comment="Marketplace.Marketplace__NotOwner">

<path fill="none" stroke="white" stroke-width="2" d="M124.73,-278.04C141.31,-274.81 161.14,-268.06 173.23,-254 230.12,-187.84 153.97,-128.53 209.23,-61 214.39,-54.7 221.23,-49.86 228.58,-46.15" style=""/>
<polygon fill="white" stroke="white" stroke-width="2" points="229.72,-49.46 237.58,-42.36 227,-43.01 229.72,-49.46" style=""/>
</g>
<!-- Marketplace.isOwner&#45;&gt;Marketplace.Marketplace__NotOwner -->
<g id="node3" class="node" pointer-events="visible" data-name="NFT._baseURI" data-comment="Marketplace.isOwner-&gt;Marketplace.Marketplace__NotOwner">

<ellipse fill="#f2c383" stroke="#f2c383" stroke-width="3" cx="94.62" cy="-227" rx="49.81" ry="18" style=""/>
<text text-anchor="middle" x="94.62" y="-222.8" font-family="Times,serif" font-size="14.00" style="">_baseURI</text>
</g>
<!-- IERC721.ownerOf -->
<g id="node4" class="node" pointer-events="visible" data-name="NFT.getTokenCounter" data-comment="IERC721.ownerOf">

<ellipse fill="#ff9797" stroke="#ff9797" stroke-width="3" cx="94.62" cy="-173" rx="78.73" ry="18" style=""/>
<text text-anchor="middle" x="94.62" y="-168.8" font-family="Times,serif" font-size="14.00" style="">getTokenCounter</text>
</g>
<!-- Marketplace.isOwner&#45;&gt;IERC721.ownerOf -->
<g id="edge5" class="edge" data-name="NFT.getTokenCounter-&gt;Counters.Counter.current" data-comment="Marketplace.isOwner-&gt;IERC721.ownerOf">

<path fill="none" stroke="white" stroke-width="2" d="M110.72,-154.03C130.94,-129.69 168.94,-87.45 209.23,-61 216.1,-56.49 223.85,-52.52 231.56,-49.1" style=""/>
<polygon fill="white" stroke="white" stroke-width="2" points="232.81,-52.38 240.74,-45.35 230.16,-45.9 232.81,-52.38" style=""/>
</g>
<!-- Marketplace.isItemApprovedForMarketPlace -->

<!-- Marketplace.isItemApprovedForMarketPlace&#45;&gt;Marketplace.IERC721 -->

<!-- Marketplace.address -->

<!-- Marketplace.isItemApprovedForMarketPlace&#45;&gt;Marketplace.address -->
<g id="edge7" class="edge" data-name="key-&gt;key2" data-comment="Marketplace.isItemApprovedForMarketPlace-&gt;Marketplace.address">

<path fill="none" stroke="white" stroke-width="2" d="M152.62,-456C197.53,-456 211.92,-456 251.11,-456"/>
<polygon fill="white" stroke="white" stroke-width="2" points="251.1,-459.5 261.1,-456 251.1,-452.5 251.1,-459.5"/>
</g>
<g id="node9" class="node" pointer-events="visible" data-name="key" data-comment="Marketplace.isItemApprovedForMarketPlace-&gt;Marketplace.address">

<polygon fill="#edad56" stroke="none" stroke-width="3" points="159.62,-490 29.62,-490 29.62,-402 159.62,-402 159.62,-490"/>
<text text-anchor="start" x="79.25" y="-471.4" font-family="Times,serif" font-size="14.00">Internal Call</text>
<text text-anchor="start" x="75.36" y="-451.4" font-family="Times,serif" font-size="14.00">External Call</text>
<text text-anchor="start" x="52.82" y="-431.4" font-family="Times,serif" font-size="14.00">Defined Contract</text>
<text text-anchor="start" x="39.22" y="-411.4" font-family="Times,serif" font-size="14.00">Undefined Contract</text>
</g><g id="node10" class="node" pointer-events="visible" data-name="key2" data-comment="Marketplace.isItemApprovedForMarketPlace-&gt;Marketplace.address">

<polygon fill="#edad56" stroke="none" stroke-width="3" points="304.13,-490 250.13,-490 250.13,-402 304.13,-402 304.13,-490"/>
<text text-anchor="start" x="267.13" y="-471.4" font-family="Times,serif" font-size="14.00">   </text>
<text text-anchor="start" x="267.13" y="-451.4" font-family="Times,serif" font-size="14.00">   </text>
<polygon fill="#445773" stroke="none" points="265.13,-426 265.13,-446 290.13,-446 290.13,-426 265.13,-426"/>
<text text-anchor="start" x="267.13" y="-431.4" font-family="Times,serif" font-size="14.00">   </text>
<polygon fill="none" stroke="#e8726d" points="267.13,-408 267.13,-424 288.13,-424 288.13,-408 267.13,-408"/>
</g><g id="edge6" class="edge" data-name="key-&gt;key2" data-comment="Marketplace.isItemApprovedForMarketPlace-&gt;Marketplace.address">

<path fill="none" stroke="#1bc6a6" stroke-width="2" d="M152.62,-476C197.53,-476 211.92,-476 251.11,-476"/>
<polygon fill="#1bc6a6" stroke="#1bc6a6" stroke-width="2" points="251.1,-479.5 261.1,-476 251.1,-472.5 251.1,-479.5"/>
</g></g>
</svg>